<?xml version="1.0" standalone="no"?><!DOCTYPE svg PUBLIC "-//W3C//DTD SVG 1.1//EN" "http://www.w3.org/Graphics/SVG/1.1/DTD/svg11.dtd"><svg t="1784071099027" class="icon" viewBox="0 0 1024 1024" version="1.1" xmlns="http://www.w3.org/2000/svg" p-id="9713" xmlns:xlink="http://www.w3.org/1999/xlink" width="200" height="200"><path d="M242.24 808.43s-15.15-266.57-16.05-330.71c-0.85-60.26-15.24-260.16 97.07-257.62 0 0 94.3-14.69 96.31 158.6 0 0 155.93-34.75 236.19-0.87 0 0-1.92-149.85 79.68-159.75 0 0 100.71-25.49 105.3 183.54 0 0 6.88 246.36-7.64 406.8H242.24z" fill="#EDC100" p-id="9714"></path><path d="M415.46 524.26m-80.56 0a80.56 80.56 0 1 0 161.12 0 80.56 80.56 0 1 0-161.12 0Z" fill="#FFFFFF" p-id="9715"></path><path d="M386.4 524.92a29.06 65.38 0 1 0 58.12 0 29.06 65.38 0 1 0-58.12 0Z" fill="#000600" p-id="9716"></path><path d="M652.02 524.26m-80.56 0a80.56 80.56 0 1 0 161.12 0 80.56 80.56 0 1 0-161.12 0Z" fill="#FFFFFF" p-id="9717"></path><path d="M622.96 524.92a29.06 65.38 0 1 0 58.12 0 29.06 65.38 0 1 0-58.12 0Z" fill="#000600" p-id="9718"></path></svg>